<svg width="129" height="29" viewBox="0 0 129 29" fill="none" xmlns="http://www.w3.org/2000/svg">
<path d="M108.029 3.41492L105.216 14.5781L105.287 14.6107C105.553 14.2552 105.795 13.8923 106.084 13.5494C107.366 11.9725 108.91 10.7711 110.98 10.3932C114.136 9.81499 117.548 11.0189 118.404 15.1863C119.331 19.6917 117.025 25.1006 113.107 27.5935C111.173 28.825 109.065 29.298 106.803 28.7499C104.812 28.2693 103.69 26.8977 103.207 24.9954C103.032 24.3071 102.981 23.5863 102.87 22.8654C102.819 22.923 102.745 22.9906 102.684 23.0707C101.415 24.7752 100.132 26.4672 98.8958 28.1917C98.6038 28.5972 98.2991 28.7799 97.8141 28.7073C97.6948 28.6898 97.5602 28.7073 97.4002 28.6873C97.611 27.8388 97.8141 27.0178 98.0198 26.1844C99.8818 18.7506 101.744 11.3159 103.606 3.88047C103.695 3.52255 103.814 3.37988 104.226 3.37988C105.472 3.43745 106.722 3.41492 108.029 3.41492ZM114.187 16.4303C114.146 15.9823 114.128 15.5493 114.062 15.1213C113.661 12.4957 111.31 11.2292 108.844 12.3104C107.755 12.786 106.945 13.5895 106.257 14.5206C105.004 16.2779 104.177 18.2954 103.84 20.4175C103.601 21.7441 103.489 23.0807 103.84 24.4073C104.502 26.9102 106.864 27.9114 109.146 26.5923C109.705 26.2728 110.211 25.871 110.647 25.4009C112.968 22.8604 113.948 19.7843 114.187 16.4403V16.4303Z" fill="white"/>
<path d="M53.9452 28.61L55.2427 23.5014L59.2571 7.7528C59.5999 6.41622 59.9351 5.07463 60.288 3.74806C60.321 3.62542 60.4658 3.4402 60.5622 3.43769C61.908 3.41767 63.2563 3.42268 64.6579 3.42268C63.7007 7.17712 62.7535 10.8815 61.781 14.686C62.2356 14.0803 62.5987 13.5421 63.0151 13.0466C65.0464 10.6112 68.195 9.66506 71.1074 10.5861C73.0549 11.2019 74.2458 12.6986 74.4515 14.7486C74.5911 16.1402 74.2737 17.4668 73.9284 18.7934C73.0939 21.9771 72.2669 25.1601 71.4476 28.3422C71.4273 28.4197 71.3968 28.4948 71.3638 28.5924H67.1336C67.286 27.9817 67.4332 27.3885 67.583 26.7953C68.3981 23.5915 69.2208 20.3927 70.0181 17.1865C70.2782 16.2391 70.2861 15.2417 70.0409 14.2905C69.8956 13.6837 69.551 13.1411 69.0606 12.7473C68.5701 12.3535 67.9614 12.1305 67.3291 12.113C65.4298 11.9728 64.0282 12.8413 62.8805 14.2305C61.649 15.7322 61.0498 17.5093 60.5953 19.3515C59.8504 22.335 59.0887 25.3144 58.31 28.2896C58.2795 28.4122 58.1323 28.5975 58.0358 28.5975C56.6951 28.615 55.3493 28.61 53.9452 28.61Z" fill="white"/>
<path d="M91.8038 28.7099C91.395 26.8677 90.9913 25.0631 90.5621 23.1358C90.4479 23.3586 90.3768 23.4887 90.3082 23.6214C89.2164 25.804 87.7132 27.5936 85.3315 28.4696C83.4322 29.168 81.4973 29.2205 79.6285 28.3645C77.7597 27.5085 77.036 25.9592 76.9395 24.0394C76.8735 22.7479 77.2315 21.5189 77.5464 20.2849C78.3369 17.1896 79.1274 14.0926 79.918 10.994C79.9662 10.7987 79.984 10.6085 80.2861 10.6135C81.5557 10.6285 82.8253 10.6135 84.0949 10.6135C84.166 10.6209 84.2364 10.6335 84.3056 10.651C84.1381 11.3043 83.9755 11.9401 83.8105 12.5758C83.0107 15.6845 82.1905 18.7882 81.4262 21.9044C81.2629 22.6166 81.2006 23.3478 81.2409 24.0769C81.3221 26.0493 82.7898 27.2682 84.7957 27.1105C86.3751 26.9879 87.5532 26.1769 88.5156 25.013C89.7369 23.5413 90.359 21.8042 90.8008 19.9821C91.5423 16.9585 92.3243 13.9424 93.0861 10.9239C93.1343 10.7336 93.1749 10.6035 93.4187 10.606C94.6883 10.606 95.9579 10.606 97.2274 10.606C97.2913 10.6143 97.3542 10.6285 97.4153 10.6485C97.2122 11.4745 97.0167 12.2855 96.8136 13.0964C95.5694 18.0907 94.3235 23.0841 93.0759 28.0767C92.8855 28.8275 93.0353 28.6724 92.2862 28.6924L91.8038 28.7099Z" fill="white"/>
<path d="M22.3247 4.47602C20.1986 4.47602 19.1364 5.01833 19.1381 6.10294V24.9703C19.1381 26.0549 20.2003 26.5963 22.3247 26.5947V28.597H10.4415V26.5947C12.5896 26.5947 13.6637 26.0532 13.6637 24.9703V6.10294C13.6637 5.01999 12.5896 4.47769 10.4415 4.47602V2.39355H22.3247V4.47602Z" fill="white"/>
<path d="M40.2714 2.39366C41.6761 2.38386 43.0789 2.49609 44.4636 2.72905C45.6162 2.91015 46.72 3.31879 47.7086 3.93047C48.6073 4.50901 49.3268 5.32047 49.7882 6.27575C50.2774 7.26525 50.5228 8.52341 50.5245 10.0502C50.5262 11.577 50.2808 12.8702 49.7882 13.9298C49.331 14.9269 48.6123 15.7858 47.7061 16.4177C46.7286 17.0745 45.6237 17.5245 44.461 17.7393C43.0792 18.0106 41.6727 18.1414 40.2638 18.1298H34.7411V24.9654C34.7411 26.0516 36.0657 26.5948 38.7149 26.5948V28.5971H26.08V26.5948C28.2028 26.5948 29.265 26.0533 29.2667 24.9704V6.10304C29.2667 5.0201 28.2045 4.47779 26.08 4.47612V2.39366H40.2714ZM34.7411 5.35966V15.2363H39.6442C41.5774 15.2363 42.9612 14.8 43.7958 13.9273C44.6303 13.0546 45.0476 11.7681 45.0476 10.0677C45.0476 8.58097 44.6303 7.42377 43.7958 6.59613C42.9612 5.76848 41.5774 5.35633 39.6442 5.35966H34.7411Z" fill="white"/>
<path d="M122.816 5.48837C123.007 5.66462 123.227 5.80635 123.467 5.90718C123.874 6.06271 124.316 6.10795 124.747 6.0383C124.971 6.01181 125.191 5.95926 125.402 5.88174C124.919 7.58986 123.987 9.13891 122.702 10.3693C124.026 10.2856 125.298 9.82274 126.363 9.03654C127.827 7.93667 129.219 5.90522 128.971 3.70939C128.93 3.35124 128.698 1.62902 127.453 0.707236C126.647 0.108371 125.68 -0.110169 124.552 0.0516157C123.624 0.184697 122.908 0.556541 122.401 1.15932C121.894 1.7621 121.707 2.52927 121.841 3.45105C121.969 4.33174 122.294 5.01084 122.816 5.48837Z" fill="#DA4533"/>
<path d="M6.18398 5.48837C5.99317 5.66462 5.77289 5.80635 5.53308 5.90718C5.12551 6.06271 4.68379 6.10795 4.25293 6.0383C4.02925 6.01181 3.80947 5.95926 3.5981 5.88174C4.08125 7.58986 5.01323 9.13891 6.29803 10.3693C4.97396 10.2856 3.70243 9.82274 2.63651 9.03654C1.17347 7.93667 -0.218773 5.90522 0.0289993 3.70939C0.0702944 3.35124 0.302342 1.62902 1.5471 0.707236C2.35334 0.108371 3.32018 -0.110169 4.44761 0.0516157C5.37577 0.184697 6.09156 0.556541 6.5989 1.15932C7.10624 1.7621 7.29305 2.52927 7.15933 3.45105C7.03086 4.33174 6.70574 5.01084 6.18398 5.48837Z" fill="#DA4533"/>
</svg>
